<svg width="20" height="20" viewBox="0 0 20 20" fill="none" xmlns="http://www.w3.org/2000/svg">
<path opacity="0.4" d="M13.4915 1.66669H6.51647C3.48314 1.66669 1.6748 3.47502 1.6748 6.50835V13.4834C1.6748 16.5167 3.48314 18.325 6.51647 18.325H13.4915C16.5248 18.325 18.3331 16.5167 18.3331 13.4834V6.50835C18.3331 3.47502 16.5248 1.66669 13.4915 1.66669Z" fill="#1F2933"/>
<path d="M11.6001 7.73331L11.6417 10.1917L13.8334 10.1583C13.9917 10.1583 14.1084 10.3 14.0834 10.45L13.7917 12.0416C13.7667 12.1583 13.6667 12.2416 13.5501 12.25L11.6751 12.2833L11.7751 18.325L9.27506 18.3666L9.17506 12.325L7.75839 12.35C7.61672 12.35 7.5084 12.2416 7.5084 12.1L7.4834 10.5167C7.4834 10.375 7.59172 10.2666 7.73339 10.2666L9.15007 10.2416L9.10838 7.53332C9.08338 6.14998 10.1834 5.01665 11.5667 4.99165L13.8167 4.95831C13.9584 4.95831 14.0667 5.06665 14.0667 5.20832L14.1001 7.20832C14.1001 7.34998 13.9917 7.45831 13.8501 7.45831L11.8501 7.49165C11.7084 7.48331 11.6001 7.59998 11.6001 7.73331Z" fill="#1F2933"/>
</svg>
